# File produced by Open Asset Import Library (http://www.assimp.sf.net)
# (assimp v5.0.0)

mtllib link_4_s_obj.mtl

# 12 vertex positions
v  -0.0051351851 -0.069946498 -0.0023329221
v  -0.067919187 -0.024836531 0.001821946
v  -0.041502111 0.1844182 -0.058629021
v  0.02714272 0.02192525 0.1188144
v  -0.022761701 0.1844897 0.066435203
v  -0.038688291 0.01269046 0.1086626
v  -0.067522071 0.18607721 0.01537037
v  0.01765677 -0.066854663 0.080354244
v  0.068888932 -0.034987941 0.0041560521
v  0.02121162 0.18434329 -0.06756407
v  0.073540777 0.1846052 -0.01349961
v  0.040599499 0.1844797 0.057340059

# 0 UV coordinates

# 20 vertex normals
vn -0.23618807 -0.242048 -0.94107807
vn -0.18178524 0.25057319 0.95087707
vn -0.72898263 0.22636853 0.64601976
vn -0.56519336 -0.80375272 0.1858442
vn 0.7169053 -0.070949562 -0.69355106
vn 0.2068824 -0.26315883 -0.94230944
vn 0.9034844 0.084146857 0.42027995
vn 0.13363174 0.3408573 0.93056911
vn -0.94296557 0.02310768 -0.33208737
vn 0.84636849 -0.28527081 0.44975659
vn -0.087032914 -0.38815778 0.91747421
vn -0.13744852 -0.23273382 -0.96277869
vn 0.94079298 0.007318669 0.33890265
vn -0.96304065 -0.015460807 0.26891205
vn 0.43158406 -0.89802271 -0.085383341
vn -0.67353904 -0.62019956 0.40211636
vn -0.0019624112 0.99999779 0.00085902365
vn 0.043524526 0.99902719 -0.007093105
vn 0.00044314782 0.99998599 -0.0052731256
vn 7.4149146e-05 0.99999976 -0.00058278331

# Mesh '' with 20 faces
usemtl DefaultMaterial
f  1//1 2//1 3//1
f  4//2 5//2 6//2
f  6//3 5//3 7//3
f  2//4 1//4 8//4
f  9//5 10//5 11//5
f  10//6 9//6 1//6
f  4//7 11//7 12//7
f  4//8 12//8 5//8
f  7//9 3//9 2//9
f  9//10 4//10 8//10
f  8//11 4//11 6//11
f  3//12 10//12 1//12
f  4//13 9//13 11//13
f  6//14 7//14 2//14
f  9//15 8//15 1//15
f  6//16 2//16 8//16
f  12//17 11//17 3//17
f  3//18 7//18 5//18
f  3//19 11//19 10//19
f  5//20 12//20 3//20

