# File produced by Open Asset Import Library (http://www.assimp.sf.net)
# (assimp v5.0.0)

mtllib link_3_s_obj.mtl

# 12 vertex positions
v  -0.075396262 -0.01270625 0.001161976
v  -0.01746908 0.055521201 -2.0337749e-05
v  -0.001187165 -0.09777344 0.003275909
v  0.070884898 0.0153117 4.9878501e-05
v  -0.03922363 0.0021369071 0.12592369
v  0.052462429 -0.034441311 0.070654422
v  0.046859369 0.072665557 0.1014321
v  0.060001571 0.001239393 0.2625801
v  -0.043887861 0.070203058 0.082894318
v  -0.060250308 0.0019198729 0.26579881
v  0.033167291 0.1150474 0.2339796
v  -0.031871472 0.098169021 0.2648201

# 0 UV coordinates

# 20 vertex normals
vn 0.0043682274 -0.021033762 -0.99976927
vn -0.0094449231 -0.022499463 -0.99970227
vn 0.086006269 -0.75921184 0.64513594
vn 0.5184691 -0.76528472 -0.38148272
vn 0.43447402 -0.22768159 0.87143177
vn -0.95859534 0.10231553 0.26575649
vn -0.97614324 -0.15981056 -0.14698638
vn -0.72582245 -0.62609696 0.28492847
vn 0.0083577065 0.98510152 -0.17177081
vn 0.38261604 0.84006631 -0.38456929
vn 0.83043271 -0.53380561 -0.15947717
vn -0.72061032 0.60598177 -0.33690771
vn 0.97051609 -0.018292798 0.24034122
vn 0.97157675 0.23539083 0.025097463
vn -0.0057232385 -0.99998075 -0.0024119418
vn -0.9589321 0.28294069 0.019844322
vn 0.34256962 0.3041566 0.88889527
vn -0.30436155 0.94431168 -0.12505792
vn 0.035633791 0.95295072 -0.30102348
vn 0.026769599 0.0022718636 0.99963903

# Mesh '' with 20 faces
usemtl DefaultMaterial
f  1//1 2//1 3//1
f  3//2 2//2 4//2
f  5//3 3//3 6//3
f  5//4 7//4 8//4
f  6//5 7//5 5//5
f  5//6 9//6 1//6
f  5//7 10//7 9//7
f  1//8 3//8 5//8
f  7//9 2//9 9//9
f  2//10 7//10 4//10
f  4//11 6//11 3//11
f  1//12 9//12 2//12
f  4//13 7//13 6//13
f  7//14 11//14 8//14
f  5//15 8//15 10//15
f  10//16 12//16 9//16
f  11//17 12//17 8//17
f  9//18 12//18 11//18
f  7//19 9//19 11//19
f  10//20 8//20 12//20

