# File produced by Open Asset Import Library (http://www.assimp.sf.net)
# (assimp v5.0.0)

mtllib link_2_s_obj.mtl

# 12 vertex positions
v  -0.05113009 0.2044913 -0.049581598
v  0.059305761 0.20448729 -0.040240571
v  0.0022850339 0.2048685 -0.071668923
v  0.05486184 0.204569 0.054687139
v  -0.08813782 -0.042388879 0.003649415
v  -0.061586939 0.2058482 0.043383911
v  0.090251721 -0.04205019 0.0041062129
v  0.00181085 -0.089529589 -1.457225e-05
v  0.062870517 -0.023530411 0.1116789
v  -0.063725449 -0.032101471 0.1182819
v  0.038152199 -0.081916884 0.085207552
v  -0.00050455477 0.02568797 0.1331037

# 0 UV coordinates

# 20 vertex normals
vn -0.0011689139 0.99989778 0.014248754
vn 0.00010866574 0.99999964 -0.00085559982
vn -0.37746942 -0.14076057 -0.91526133
vn 0.012265946 0.99983746 -0.013213675
vn 0.16986361 -0.23331024 -0.95745111
vn 0.99009126 0.13259539 0.046235759
vn -0.98592508 0.1234919 -0.11270024
vn 0.9686774 0.091672637 0.2307816
vn 0.47995508 -0.096601456 -0.87195826
vn -0.16125272 -0.2331486 -0.9589783
vn 0.07638894 -0.43836367 0.89554572
vn -0.083019823 0.42154589 0.90299881
vn -0.45147049 -0.87502217 0.17467277
vn -0.36405832 -0.90104985 0.23573455
vn 0.070938207 -0.31992307 0.9447841
vn 0.47382239 -0.87182164 -0.12417462
vn -0.44829792 0.27204469 0.8514815
vn 0.82545543 -0.48237306 0.29315442
vn -0.97681367 0.072217435 0.20154329
vn 0.46707505 0.22973807 0.85385084

# Mesh '' with 20 faces
usemtl DefaultMaterial
f  1//1 2//1 3//1
f  4//2 2//2 1//2
f  5//3 1//3 3//3
f  6//4 4//4 1//4
f  3//5 7//5 8//5
f  7//6 2//6 4//6
f  1//7 5//7 6//7
f  9//8 7//8 4//8
f  3//9 2//9 7//9
f  3//10 8//10 5//10
f  10//11 11//11 9//11
f  6//12 12//12 4//12
f  10//13 5//13 8//13
f  8//14 11//14 10//14
f  10//15 9//15 12//15
f  11//16 8//16 7//16
f  10//17 12//17 6//17
f  9//18 11//18 7//18
f  5//19 10//19 6//19
f  4//20 12//20 9//20

