# File produced by Open Asset Import Library (http://www.assimp.sf.net)
# (assimp v5.0.0)

mtllib link_7-MF-Touch-pneumatisch_s_obj.mtl

# 12 vertex positions
v  0.072024412 0.002387861 0.024886027
v  0.039494805 -0.0041314252 0.071472608
v  0.00084632577 0.036506467 0.071099289
v  -0.010154314 0.054532312 -0.00096609665
v  -0.040500417 0.039828256 0.031602871
v  -0.043898325 0.027815539 -0.0083926478
v  0.00028134458 0.063871466 0.0315408
v  -0.055206701 -0.00072108163 0.034452092
v  0.045376498 -0.0030607255 -0.0078583546
v  0.020229297 -0.058887105 0.011223118
v  -0.042935383 -0.038174823 0.0010190305
v  -0.026076391 -0.022695446 0.070151985

# 0 UV coordinates

# 20 vertex normals
vn -0.61874574 -0.59318686 -0.51505625
vn 0.58401328 -0.78977054 0.18759264
vn 0.43424898 -0.73790091 -0.5166527
vn 0.94035 -0.3394914 0.022077248
vn -0.71355373 0.49192864 0.49884596
vn -0.069679826 -0.18450597 0.9803583
vn 0.64996845 -0.28522369 -0.70440644
vn 0.33985391 0.89668328 -0.28365186
vn -0.20151219 0.75607198 -0.62269413
vn 0.50616199 -0.85832787 0.084102839
vn 0.78526509 0.5351932 -0.311331
vn -0.040504627 0.33945251 0.93975073
vn 0.64970797 -0.28417981 -0.70506835
vn 0.95573908 0.055163793 0.28899804
vn -0.60569561 -0.65840423 -0.4468073
vn -0.66540027 0.64590228 -0.37423626
vn -0.57765716 -0.71639705 0.3912639
vn -0.56242323 -0.60919034 0.55907708
vn 0.043081485 0.14167824 0.98897487
vn 0.017913487 0.007851826 -0.99980873

# Mesh '' with 20 faces
usemtl DefaultMaterial
f  1//1 2//1 3//1
f  4//2 5//2 6//2
f  5//3 7//3 3//3
f  6//4 5//4 8//4
f  9//5 10//5 1//5
f  4//6 6//6 9//6
f  3//7 8//7 5//7
f  10//8 11//8 12//8
f  10//9 12//9 2//9
f  7//10 5//10 4//10
f  8//11 12//11 11//11
f  11//12 10//12 9//12
f  3//13 12//13 8//13
f  8//14 11//14 6//14
f  1//15 3//15 7//15
f  2//16 1//16 10//16
f  1//17 7//17 4//17
f  1//18 4//18 9//18
f  11//19 9//19 6//19
f  3//20 2//20 12//20

