# File produced by Open Asset Import Library (http://www.assimp.sf.net)
# (assimp v5.0.0)

mtllib link_6_s_obj.mtl

# 12 vertex positions
v  0.042109389 -0.045055538 0.063449509
v  -0.029042341 0.080836937 0.050034691
v  -0.04286762 -0.05876217 0.0607244
v  0.073183037 -0.01516853 -0.0127186
v  0.056166571 0.081565447 0.01427541
v  0.01850138 -0.090942122 0.01384219
v  -0.018501971 -0.048597671 -0.066470578
v  0.057154279 -0.022904839 -0.062217459
v  -0.070428759 -0.018467089 -0.01204345
v  -0.05270667 0.081106149 -0.01082256
v  -0.042739 0.01967532 -0.071181647
v  0.0071825599 0.082990684 -0.053548388

# 0 UV coordinates

# 20 vertex normals
vn -0.044948187 0.080698431 0.99572462
vn 0.91748774 0.051325466 0.39443877
vn 0.29632533 -0.78174251 -0.54869843
vn -0.62851 -0.75648403 -0.18085097
vn 0.36682075 0.30111268 0.88021225
vn -0.9198733 0.15932506 0.35839739
vn -0.93000698 0.1695216 -0.32611254
vn 0.10076551 -0.75381142 0.64931864
vn -0.55716681 -0.81246448 -0.17165793
vn 0.070834175 -0.043617986 -0.99653399
vn -0.4891417 0.56961954 -0.66051042
vn 0.77453357 -0.61325717 -0.15496245
vn -0.76770729 -0.31119075 -0.56016576
vn 0.90817159 0.25284982 -0.33360341
vn -0.90428299 0.12090991 0.40945476
vn 0.15236284 0.15184742 -0.97658998
vn 0.82448423 -0.55316526 0.11930554
vn 0.74813402 0.39659253 -0.53198677
vn -0.010867961 0.99952453 0.028852927
vn -0.0057539991 0.99996126 0.0066609303

# Mesh '' with 20 faces
usemtl DefaultMaterial
f  1//1 2//1 3//1
f  4//2 5//2 1//2
f  6//3 7//3 8//3
f  7//4 3//4 9//4
f  1//5 5//5 2//5
f  9//6 2//6 10//6
f  11//7 9//7 10//7
f  1//8 3//8 6//8
f  6//9 3//9 7//9
f  11//10 8//10 7//10
f  10//11 12//11 11//11
f  8//12 4//12 6//12
f  7//13 9//13 11//13
f  8//14 5//14 4//14
f  2//15 9//15 3//15
f  11//16 12//16 8//16
f  4//17 1//17 6//17
f  5//18 8//18 12//18
f  5//19 12//19 10//19
f  10//20 2//20 5//20

