# File produced by Open Asset Import Library (http://www.assimp.sf.net)
# (assimp v5.0.0)

mtllib link_7_s_obj.mtl

# 12 vertex positions
v  -0.017307779 -0.022067849 -0.01054347
v  -0.0053178933 0.028290318 -0.01023753
v  -0.054043122 -0.020737851 -0.00013583319
v  0.0060874312 -0.053732637 -0.00011395039
v  0.054747019 -0.001076422 -0.00275123
v  -0.01004377 0.042217389 0.044478331
v  -0.047372971 0.010339679 0.03242299
v  -0.037441831 0.038199019 0.00010978529
v  0.01260781 0.052762888 0.0001576811
v  -0.02770314 -0.032956861 0.043744002
v  0.039259117 0.020244181 0.039501429
v  0.032641981 -0.027581729 0.044242058

# 0 UV coordinates

# 20 vertex normals
vn 0.26956901 -0.070017196 0.96043235
vn -0.1623354 0.19842501 0.9665789
vn 0.67073423 -0.65110439 -0.3552165
vn 0.13593671 -0.47002301 0.87212372
vn 0.28211161 -0.083448008 0.95574552
vn 0.36513519 -0.076711826 -0.92778856
vn -0.78666604 -0.61695182 0.022956628
vn -0.23119012 -0.23199831 0.94484293
vn 0.27845651 -0.95665282 -0.085307941
vn -0.91973668 0.089366376 -0.38222751
vn 0.96064073 -0.27084962 0.061725959
vn -0.73293144 0.67922157 0.038335316
vn -0.074290417 0.87787515 -0.47309217
vn -0.40621337 -0.82022363 -0.40277043
vn 0.85625362 0.27459881 -0.4375217
vn 0.48059011 0.87581033 -0.044603661
vn 0.2565282 0.46806452 0.84564114
vn -0.11353721 0.020997578 0.99331182
vn 0.0075407694 0.0079963515 -0.99993962
vn -0.1350081 -0.079221115 -0.98767245

# Mesh 'STL' with 20 faces
g STL
usemtl DefaultMaterial
f  1//1 2//1 3//1
f  4//2 5//2 1//2
f  6//3 7//3 8//3
f  8//4 2//4 9//4
f  3//5 2//5 8//5
f  6//6 10//6 7//6
f  5//7 11//7 9//7
f  5//8 9//8 2//8
f  6//9 8//9 9//9
f  12//10 11//10 5//10
f  3//11 8//11 7//11
f  4//12 12//12 5//12
f  12//13 4//13 10//13
f  11//14 6//14 9//14
f  7//15 10//15 3//15
f  3//16 10//16 4//16
f  4//17 1//17 3//17
f  5//18 2//18 1//18
f  12//19 10//19 6//19
f  6//20 11//20 12//20

