# File produced by Open Asset Import Library (http://www.assimp.sf.net)
# (assimp v5.0.0)

mtllib link_5_s_obj.mtl

# 12 vertex positions
v  0.0055478471 0.1043653 0.19188251
v  0.05050005 0.049239989 0.002671974
v  0.00807044 0.068135098 -6.9778122e-05
v  -0.057798561 -0.032764141 0.061780859
v  -0.053669401 0.04862294 -0.0004247113
v  -0.036147371 -0.054135881 -0.01155057
v  -0.049239591 0.07699918 0.2387204
v  -0.01504847 0.05963628 0.2651009
v  0.01336558 -0.071136139 0.046151228
v  0.04736669 0.07461141 0.26299721
v  0.062428668 -0.0276094 0.053049501
v  0.073790848 -0.01360539 -0.00089739548

# 0 UV coordinates

# 20 vertex normals
vn 0.41012961 0.8971706 -0.1639474
vn -0.96013772 -0.13736026 -0.24344946
vn -0.99816936 0.059387907 0.011442822
vn -0.34629095 -0.82450753 0.44751522
vn -0.29542726 0.93807429 -0.18094008
vn -0.64823234 -0.63260984 0.423792
vn -0.151127 0.72437644 0.67263621
vn 0.97084606 -0.18061869 0.15759091
vn 0.33915645 -0.78283894 -0.52166659
vn 0.21568467 -0.82574159 0.5211823
vn 0.65046245 0.75667268 -0.065916501
vn -0.50697649 0.85700405 -0.092298537
vn -0.084970191 0.90039891 0.42668706
vn -0.4494569 -0.88450229 0.12507705
vn 0.93701512 0.34855106 -0.02269173
vn 0.66684628 -0.7433427 -0.052513696
vn -0.026859688 0.10307558 -0.9943108
vn 0.57983321 -0.7153784 0.38990656
vn 0.091120943 0.060380869 -0.99400759
vn 0.066463046 0.081114419 -0.99448633

# Mesh '' with 20 faces
usemtl DefaultMaterial
f  1//1 2//1 3//1
f  4//2 5//2 6//2
f  7//3 5//3 4//3
f  8//4 4//4 9//4
f  5//5 1//5 3//5
f  4//6 8//6 7//6
f  8//7 10//7 7//7
f  11//8 12//8 10//8
f  12//9 9//9 6//9
f  9//10 10//10 8//10
f  2//11 1//11 10//11
f  7//12 1//12 5//12
f  7//13 10//13 1//13
f  9//14 4//14 6//14
f  2//15 10//15 12//15
f  11//16 9//16 12//16
f  6//17 5//17 3//17
f  9//18 11//18 10//18
f  6//19 3//19 2//19
f  6//20 2//20 12//20

