# File produced by Open Asset Import Library (http://www.assimp.sf.net)
# (assimp v5.0.0)

mtllib link_1_s_obj.mtl

# 12 vertex positions
v  -0.055752389 0.067800097 0.0002057098
v  -0.08776436 -0.0050159162 -0.0002059886
v  -0.089405358 -0.0099550216 0.24372099
v  -0.052521929 -0.069650203 -0.01102589
v  -0.049353749 -0.0047642868 0.2922619
v  0.040103141 -0.0024773451 0.29148859
v  0.01307211 0.091338716 -0.00096800888
v  0.087238051 0.02395671 0.001032257
v  0.087297007 -0.0065413681 0.24395549
v  0.01105915 -0.085748121 3.0909621e-05
v  0.01707047 -0.1244074 0.2071891
v  0.068109743 -0.05697972 -0.0001639054

# 0 UV coordinates

# 20 vertex normals
vn -0.91544282 0.4024432 0.0019902277
vn -0.87895417 -0.47665215 -0.015564482
vn -0.021666681 0.95139885 0.30719832
vn 0.66819346 0.7382127 0.092517607
vn 0.33864242 0.90459979 0.25888333
vn -0.21331279 -0.96150124 -0.17324275
vn -0.53887421 -0.66597068 0.51584655
vn 0.021698102 -0.57132781 0.82043511
vn 0.9728756 -0.22949761 -0.029048657
vn -0.39380786 0.89001417 0.22976112
vn 0.85275209 -0.52073807 0.040566985
vn -0.31089839 0.92078221 0.23558934
vn 0.57585698 -0.53574049 0.6175524
vn -0.72180665 -0.68973356 0.057119701
vn 0.44267267 -0.87906176 -0.17689353
vn -0.16158283 0.076599181 -0.98388189
vn 0.11092445 -0.22652711 -0.96766794
vn 0.090369508 -0.0066394578 -0.99588621
vn 0.060953125 0.037480447 -0.99743664
vn -0.044453353 0.080324046 -0.99577707

# Mesh '' with 20 faces
usemtl DefaultMaterial
f  1//1 2//1 3//1
f  2//2 4//2 3//2
f  5//3 6//3 7//3
f  8//4 7//4 9//4
f  7//5 6//5 9//5
f  4//6 10//6 11//6
f  3//7 11//7 5//7
f  5//8 11//8 6//8
f  12//9 8//9 9//9
f  1//10 3//10 5//10
f  11//11 12//11 9//11
f  7//12 1//12 5//12
f  6//13 11//13 9//13
f  3//14 4//14 11//14
f  11//15 10//15 12//15
f  2//16 1//16 4//16
f  4//17 12//17 10//17
f  8//18 12//18 4//18
f  4//19 7//19 8//19
f  4//20 1//20 7//20

